<mxfile host="www.draw.io" modified="2020-01-15T10:40:50.524Z" agent="Mozilla/5.0 (Windows NT 10.0; Win64; x64; rv:72.0) Gecko/20100101 Firefox/72.0" etag="rtzZK-C4VTL1oSb5azvY" version="12.5.3" type="github">
  <diagram id="c_FgdC-Fhckcx7nlDciK" name="Page-1">
    <mxGraphModel dx="2248" dy="795" grid="1" gridSize="10" guides="1" tooltips="1" connect="1" arrows="1" fold="1" page="1" pageScale="1" pageWidth="827" pageHeight="1169" math="0" shadow="0">
      <root>
        <mxCell id="0"/>
        <mxCell id="1" parent="0"/>
        <mxCell id="vV2OZhfB6OUsBRNj7-WW-6" value="Rooms" style="swimlane;childLayout=stackLayout;horizontal=1;startSize=30;horizontalStack=0;fillColor=#f5f5f5;fontColor=#333333;rounded=0;fontSize=14;fontStyle=0;strokeWidth=2;resizeParent=0;resizeLast=1;shadow=0;dashed=0;align=center;swimlaneFillColor=#ffffff;strokeColor=#666666;" parent="1" vertex="1">
          <mxGeometry x="-20" y="20" width="160" height="220" as="geometry"/>
        </mxCell>
        <mxCell id="vV2OZhfB6OUsBRNj7-WW-7" value="+IdRoom&#xa;+Capacity&#xa;+Clim&#xa;&#xa;+Network&#xa;+Active&#xa;&#xa;&#xa;+IdCapacityIdRoomsTypeIdFloor&#xa;+IdFloor&#xa;&#xa;&#xa;&#xa;&#xa;" style="align=left;strokeColor=none;fillColor=none;spacingLeft=4;fontSize=12;verticalAlign=top;resizable=0;rotatable=0;part=1;labelBackgroundColor=none;" parent="vV2OZhfB6OUsBRNj7-WW-6" vertex="1">
          <mxGeometry y="30" width="160" height="190" as="geometry"/>
        </mxCell>
        <mxCell id="vV2OZhfB6OUsBRNj7-WW-65" value="Floor" style="swimlane;childLayout=stackLayout;horizontal=1;startSize=30;horizontalStack=0;fillColor=#f5f5f5;rounded=0;fontSize=14;fontStyle=0;strokeWidth=2;resizeParent=0;resizeLast=1;shadow=0;dashed=0;align=center;strokeColor=#666666;fontColor=#333333;" parent="1" vertex="1">
          <mxGeometry x="310" y="190" width="160" height="120" as="geometry"/>
        </mxCell>
        <mxCell id="vV2OZhfB6OUsBRNj7-WW-66" value="+IdFloor&#xa;+FloorNumber&#xa;&#xa;&#xa;+IdRoom&#xa;" style="align=left;strokeColor=none;fillColor=none;spacingLeft=4;fontSize=12;verticalAlign=top;resizable=0;rotatable=0;part=1;" parent="vV2OZhfB6OUsBRNj7-WW-65" vertex="1">
          <mxGeometry y="30" width="160" height="90" as="geometry"/>
        </mxCell>
        <mxCell id="vV2OZhfB6OUsBRNj7-WW-70" value="Traineurs" style="swimlane;childLayout=stackLayout;horizontal=1;startSize=30;horizontalStack=0;fillColor=#f5f5f5;fontColor=#333333;rounded=0;fontSize=14;fontStyle=0;strokeWidth=2;resizeParent=0;resizeLast=1;shadow=0;dashed=0;align=center;labelBackgroundColor=none;strokeColor=#666666;" parent="1" vertex="1">
          <mxGeometry x="-20" y="440" width="160" height="350" as="geometry"/>
        </mxCell>
        <mxCell id="vV2OZhfB6OUsBRNj7-WW-71" value="+IdTraineurs&#xa;+FirstName&#xa;+LastName&#xa;&#xa;+Active&#xa;&#xa;&#xa;+ContractType&#xa;+IdTraineurs/Speciality&#xa;+IdSpeciality&#xa;+IdAdress&#xa;+IdCenter&#xa;+IdContractType&#xa;+IdRoom&#xa;+IdMobility&#xa;&#xa;&#xa;&#xa;" style="align=left;strokeColor=none;fillColor=none;spacingLeft=4;fontSize=12;verticalAlign=top;resizable=0;rotatable=0;part=1;" parent="vV2OZhfB6OUsBRNj7-WW-70" vertex="1">
          <mxGeometry y="30" width="160" height="320" as="geometry"/>
        </mxCell>
        <mxCell id="vV2OZhfB6OUsBRNj7-WW-72" value="Speciality" style="swimlane;childLayout=stackLayout;horizontal=1;startSize=30;horizontalStack=0;fillColor=#f5f5f5;rounded=0;fontSize=14;fontStyle=0;strokeWidth=2;resizeParent=0;resizeLast=1;shadow=0;dashed=0;align=center;labelBackgroundColor=none;strokeColor=#666666;fontColor=#333333;" parent="1" vertex="1">
          <mxGeometry x="300" y="390" width="160" height="120" as="geometry"/>
        </mxCell>
        <mxCell id="vV2OZhfB6OUsBRNj7-WW-73" value="+IdSpeciality&#xa;+TypeOfSpeciality&#xa;+XpIn&#xa;&#xa;+IdTraineurs/Speciality&#xa;+IdTraineurs&#xa;" style="align=left;strokeColor=none;fillColor=none;spacingLeft=4;fontSize=12;verticalAlign=top;resizable=0;rotatable=0;part=1;" parent="vV2OZhfB6OUsBRNj7-WW-72" vertex="1">
          <mxGeometry y="30" width="160" height="90" as="geometry"/>
        </mxCell>
        <mxCell id="vV2OZhfB6OUsBRNj7-WW-74" value="FromCenter" style="swimlane;childLayout=stackLayout;horizontal=1;startSize=30;horizontalStack=0;fillColor=#f5f5f5;rounded=0;fontSize=14;fontStyle=0;strokeWidth=2;resizeParent=0;resizeLast=1;shadow=0;dashed=0;align=center;labelBackgroundColor=none;strokeColor=#666666;fontColor=#333333;" parent="1" vertex="1">
          <mxGeometry x="240" y="550" width="160" height="120" as="geometry"/>
        </mxCell>
        <mxCell id="vV2OZhfB6OUsBRNj7-WW-75" value="+IdCenter&#xa;+CenterNames&#xa;&#xa;&#xa;+IdTraineurs&#xa;" style="align=left;strokeColor=none;fillColor=none;spacingLeft=4;fontSize=12;verticalAlign=top;resizable=0;rotatable=0;part=1;" parent="vV2OZhfB6OUsBRNj7-WW-74" vertex="1">
          <mxGeometry y="30" width="160" height="90" as="geometry"/>
        </mxCell>
        <mxCell id="vV2OZhfB6OUsBRNj7-WW-76" value="ContractType" style="swimlane;childLayout=stackLayout;horizontal=1;startSize=30;horizontalStack=0;fillColor=#f5f5f5;rounded=0;fontSize=14;fontStyle=0;strokeWidth=2;resizeParent=0;resizeLast=1;shadow=0;dashed=0;align=center;labelBackgroundColor=none;strokeColor=#666666;fontColor=#333333;" parent="1" vertex="1">
          <mxGeometry x="240" y="710" width="160" height="120" as="geometry"/>
        </mxCell>
        <mxCell id="vV2OZhfB6OUsBRNj7-WW-77" value="+IdContractType&#xa;+TypeOfContract&#xa;&#xa;&#xa;+IdTraineurs&#xa;" style="align=left;strokeColor=none;fillColor=none;spacingLeft=4;fontSize=12;verticalAlign=top;resizable=0;rotatable=0;part=1;" parent="vV2OZhfB6OUsBRNj7-WW-76" vertex="1">
          <mxGeometry y="30" width="160" height="90" as="geometry"/>
        </mxCell>
        <mxCell id="vV2OZhfB6OUsBRNj7-WW-94" value="RoomsType" style="swimlane;childLayout=stackLayout;horizontal=1;startSize=30;horizontalStack=0;fillColor=#f5f5f5;rounded=0;fontSize=14;fontStyle=0;strokeWidth=2;resizeParent=0;resizeLast=1;shadow=0;dashed=0;align=center;labelBackgroundColor=none;strokeColor=#666666;fontColor=#333333;" parent="1" vertex="1">
          <mxGeometry x="310" y="20" width="160" height="120" as="geometry"/>
        </mxCell>
        <mxCell id="vV2OZhfB6OUsBRNj7-WW-95" value="+IdRoomsType&#xa;+RoomsType&#xa;&#xa;+IdRoom&#xa;+IdRoomIdStuffinRooms&#xa;+IdRoomsType/StuffInRooms&#xa;&#xa;" style="align=left;strokeColor=none;fillColor=none;spacingLeft=4;fontSize=12;verticalAlign=top;resizable=0;rotatable=0;part=1;" parent="vV2OZhfB6OUsBRNj7-WW-94" vertex="1">
          <mxGeometry y="30" width="160" height="90" as="geometry"/>
        </mxCell>
        <mxCell id="vV2OZhfB6OUsBRNj7-WW-96" value="StuffInRooms" style="swimlane;childLayout=stackLayout;horizontal=1;startSize=30;horizontalStack=0;fillColor=#f5f5f5;rounded=0;fontSize=14;fontStyle=0;strokeWidth=2;resizeParent=0;resizeLast=1;shadow=0;dashed=0;align=center;labelBackgroundColor=none;strokeColor=#666666;fontColor=#333333;" parent="1" vertex="1">
          <mxGeometry x="630" y="20" width="160" height="120" as="geometry"/>
        </mxCell>
        <mxCell id="vV2OZhfB6OUsBRNj7-WW-97" value="+IdStuffInRooms&#xa;+TypeOfEquipments&#xa;&#xa;&#xa;+IdRoomsType&#xa;+IdRoomsType/StuffInRooms&#xa;&#xa;" style="align=left;strokeColor=none;fillColor=none;spacingLeft=4;fontSize=12;verticalAlign=top;resizable=0;rotatable=0;part=1;" parent="vV2OZhfB6OUsBRNj7-WW-96" vertex="1">
          <mxGeometry y="30" width="160" height="90" as="geometry"/>
        </mxCell>
        <mxCell id="ZH39JfTqmYpF4iKeCnlZ-86" style="edgeStyle=orthogonalEdgeStyle;rounded=0;orthogonalLoop=1;jettySize=auto;html=1;" parent="1" source="vV2OZhfB6OUsBRNj7-WW-99" edge="1">
          <mxGeometry relative="1" as="geometry">
            <mxPoint x="520" y="850" as="targetPoint"/>
          </mxGeometry>
        </mxCell>
        <mxCell id="vV2OZhfB6OUsBRNj7-WW-99" value="Adress" style="swimlane;childLayout=stackLayout;horizontal=1;startSize=30;horizontalStack=0;fillColor=#f5f5f5;rounded=0;fontSize=14;fontStyle=0;strokeWidth=2;resizeParent=0;resizeLast=1;shadow=0;dashed=0;align=center;labelBackgroundColor=none;strokeColor=#666666;fontColor=#333333;" parent="1" vertex="1">
          <mxGeometry x="440" y="850" width="160" height="140" as="geometry"/>
        </mxCell>
        <mxCell id="vV2OZhfB6OUsBRNj7-WW-100" value="+IdAdress&#xa;+Number&#xa;&#xa;&#xa;+IdTraineurs&#xa;+IdRoads&#xa;+IdTowns&#xa;&#xa;" style="align=left;strokeColor=none;fillColor=none;spacingLeft=4;fontSize=12;verticalAlign=top;resizable=0;rotatable=0;part=1;" parent="vV2OZhfB6OUsBRNj7-WW-99" vertex="1">
          <mxGeometry y="30" width="160" height="110" as="geometry"/>
        </mxCell>
        <mxCell id="vV2OZhfB6OUsBRNj7-WW-101" value="TypeOfRoad" style="swimlane;childLayout=stackLayout;horizontal=1;startSize=30;horizontalStack=0;fillColor=#f5f5f5;rounded=0;fontSize=14;fontStyle=0;strokeWidth=2;resizeParent=0;resizeLast=1;shadow=0;dashed=0;align=center;labelBackgroundColor=none;strokeColor=#666666;fontColor=#333333;" parent="1" vertex="1">
          <mxGeometry x="650" y="730" width="160" height="120" as="geometry"/>
        </mxCell>
        <mxCell id="vV2OZhfB6OUsBRNj7-WW-102" value="+IdRoads&#xa;+TypeOfRoads&#xa;&#xa;&#xa;+IdAdress&#xa;" style="align=left;strokeColor=none;fillColor=none;spacingLeft=4;fontSize=12;verticalAlign=top;resizable=0;rotatable=0;part=1;" parent="vV2OZhfB6OUsBRNj7-WW-101" vertex="1">
          <mxGeometry y="30" width="160" height="90" as="geometry"/>
        </mxCell>
        <mxCell id="vV2OZhfB6OUsBRNj7-WW-103" value="Towns" style="swimlane;childLayout=stackLayout;horizontal=1;startSize=30;horizontalStack=0;fillColor=#f5f5f5;rounded=0;fontSize=14;fontStyle=0;strokeWidth=2;resizeParent=0;resizeLast=1;shadow=0;dashed=0;align=center;labelBackgroundColor=none;strokeColor=#666666;fontColor=#333333;" parent="1" vertex="1">
          <mxGeometry x="650" y="850" width="160" height="120" as="geometry"/>
        </mxCell>
        <mxCell id="vV2OZhfB6OUsBRNj7-WW-104" value="+idTowns&#xa;+Towns&#xa;&#xa;&#xa;+IdAdress&#xa;" style="align=left;strokeColor=none;fillColor=none;spacingLeft=4;fontSize=12;verticalAlign=top;resizable=0;rotatable=0;part=1;" parent="vV2OZhfB6OUsBRNj7-WW-103" vertex="1">
          <mxGeometry y="30" width="160" height="90" as="geometry"/>
        </mxCell>
        <mxCell id="ZH39JfTqmYpF4iKeCnlZ-7" value="(1/n)" style="text;html=1;strokeColor=none;fillColor=none;align=center;verticalAlign=middle;whiteSpace=wrap;rounded=0;" parent="1" vertex="1">
          <mxGeometry x="140" y="30" width="40" height="20" as="geometry"/>
        </mxCell>
        <mxCell id="ZH39JfTqmYpF4iKeCnlZ-8" value="Avoir" style="text;html=1;strokeColor=none;fillColor=none;align=center;verticalAlign=middle;whiteSpace=wrap;rounded=0;" parent="1" vertex="1">
          <mxGeometry x="190" y="50" width="60" height="20" as="geometry"/>
        </mxCell>
        <mxCell id="ZH39JfTqmYpF4iKeCnlZ-9" value="(1/n)" style="text;html=1;strokeColor=none;fillColor=none;align=center;verticalAlign=middle;whiteSpace=wrap;rounded=0;" parent="1" vertex="1">
          <mxGeometry x="260" y="90" width="40" height="20" as="geometry"/>
        </mxCell>
        <mxCell id="ZH39JfTqmYpF4iKeCnlZ-10" value="Avoir" style="text;html=1;strokeColor=none;fillColor=none;align=center;verticalAlign=middle;whiteSpace=wrap;rounded=0;" parent="1" vertex="1">
          <mxGeometry x="520" y="70" width="60" height="20" as="geometry"/>
        </mxCell>
        <mxCell id="ZH39JfTqmYpF4iKeCnlZ-12" value="(1/n)" style="text;html=1;strokeColor=none;fillColor=none;align=center;verticalAlign=middle;whiteSpace=wrap;rounded=0;" parent="1" vertex="1">
          <mxGeometry x="470" y="70" width="40" height="20" as="geometry"/>
        </mxCell>
        <mxCell id="ZH39JfTqmYpF4iKeCnlZ-13" value="(n/m)" style="text;html=1;strokeColor=none;fillColor=none;align=center;verticalAlign=middle;whiteSpace=wrap;rounded=0;" parent="1" vertex="1">
          <mxGeometry x="580" y="70" width="40" height="20" as="geometry"/>
        </mxCell>
        <mxCell id="ZH39JfTqmYpF4iKeCnlZ-17" value="RoomsType/StuffInRooms" style="swimlane;fontStyle=0;childLayout=stackLayout;horizontal=1;startSize=26;fillColor=#878787;horizontalStack=0;resizeParent=1;resizeParentMax=0;resizeLast=0;collapsible=1;marginBottom=0;swimlaneFillColor=#ffffff;align=center;fontSize=14;" parent="1" vertex="1">
          <mxGeometry x="500" y="170" width="160" height="104" as="geometry"/>
        </mxCell>
        <mxCell id="ZH39JfTqmYpF4iKeCnlZ-18" value="." style="text;strokeColor=none;fillColor=none;spacingLeft=4;spacingRight=4;overflow=hidden;rotatable=0;points=[[0,0.5],[1,0.5]];portConstraint=eastwest;fontSize=12;" parent="ZH39JfTqmYpF4iKeCnlZ-17" vertex="1">
          <mxGeometry y="26" width="160" height="26" as="geometry"/>
        </mxCell>
        <mxCell id="ZH39JfTqmYpF4iKeCnlZ-19" value="." style="text;strokeColor=none;fillColor=none;spacingLeft=4;spacingRight=4;overflow=hidden;rotatable=0;points=[[0,0.5],[1,0.5]];portConstraint=eastwest;fontSize=12;" parent="ZH39JfTqmYpF4iKeCnlZ-17" vertex="1">
          <mxGeometry y="52" width="160" height="26" as="geometry"/>
        </mxCell>
        <mxCell id="ZH39JfTqmYpF4iKeCnlZ-20" value="+IdRoomsTypeIdStuffInRooms&#xa;" style="text;strokeColor=none;fillColor=none;spacingLeft=4;spacingRight=4;overflow=hidden;rotatable=0;points=[[0,0.5],[1,0.5]];portConstraint=eastwest;fontSize=12;" parent="ZH39JfTqmYpF4iKeCnlZ-17" vertex="1">
          <mxGeometry y="78" width="160" height="26" as="geometry"/>
        </mxCell>
        <mxCell id="ZH39JfTqmYpF4iKeCnlZ-24" value="&lt;div&gt;(1/1)&lt;/div&gt;" style="text;html=1;strokeColor=none;fillColor=none;align=center;verticalAlign=middle;whiteSpace=wrap;rounded=0;" parent="1" vertex="1">
          <mxGeometry x="150" y="190" width="40" height="20" as="geometry"/>
        </mxCell>
        <mxCell id="ZH39JfTqmYpF4iKeCnlZ-26" value="(1/n)" style="text;html=1;strokeColor=none;fillColor=none;align=center;verticalAlign=middle;whiteSpace=wrap;rounded=0;" parent="1" vertex="1">
          <mxGeometry x="260" y="270" width="40" height="20" as="geometry"/>
        </mxCell>
        <mxCell id="ZH39JfTqmYpF4iKeCnlZ-28" value="(Avoir)" style="text;html=1;" parent="1" vertex="1">
          <mxGeometry x="220" y="250" width="60" height="30" as="geometry"/>
        </mxCell>
        <mxCell id="ZH39JfTqmYpF4iKeCnlZ-29" value="" style="endArrow=none;html=1;exitX=1.006;exitY=0.054;exitDx=0;exitDy=0;exitPerimeter=0;entryX=-0.019;entryY=0.111;entryDx=0;entryDy=0;entryPerimeter=0;" parent="1" source="vV2OZhfB6OUsBRNj7-WW-70" target="vV2OZhfB6OUsBRNj7-WW-73" edge="1">
          <mxGeometry width="50" height="50" relative="1" as="geometry">
            <mxPoint x="160" y="470" as="sourcePoint"/>
            <mxPoint x="210" y="420" as="targetPoint"/>
          </mxGeometry>
        </mxCell>
        <mxCell id="ZH39JfTqmYpF4iKeCnlZ-30" value="" style="endArrow=none;html=1;edgeStyle=orthogonalEdgeStyle;exitX=1.013;exitY=0.858;exitDx=0;exitDy=0;exitPerimeter=0;entryX=0;entryY=0.75;entryDx=0;entryDy=0;" parent="1" source="vV2OZhfB6OUsBRNj7-WW-7" target="vV2OZhfB6OUsBRNj7-WW-66" edge="1">
          <mxGeometry width="50" height="50" relative="1" as="geometry">
            <mxPoint x="190" y="250" as="sourcePoint"/>
            <mxPoint x="240" y="200" as="targetPoint"/>
          </mxGeometry>
        </mxCell>
        <mxCell id="ZH39JfTqmYpF4iKeCnlZ-31" value="" style="endArrow=none;html=1;entryX=0;entryY=0.5;entryDx=0;entryDy=0;exitX=0.25;exitY=1;exitDx=0;exitDy=0;" parent="1" source="vV2OZhfB6OUsBRNj7-WW-71" target="vV2OZhfB6OUsBRNj7-WW-89" edge="1">
          <mxGeometry width="50" height="50" relative="1" as="geometry">
            <mxPoint y="1090" as="sourcePoint"/>
            <mxPoint x="120" y="1100" as="targetPoint"/>
            <Array as="points">
              <mxPoint x="30" y="1124"/>
            </Array>
          </mxGeometry>
        </mxCell>
        <mxCell id="ZH39JfTqmYpF4iKeCnlZ-33" value="" style="endArrow=none;html=1;edgeStyle=orthogonalEdgeStyle;exitX=1.013;exitY=0.036;exitDx=0;exitDy=0;exitPerimeter=0;" parent="1" source="vV2OZhfB6OUsBRNj7-WW-6" edge="1">
          <mxGeometry width="50" height="50" relative="1" as="geometry">
            <mxPoint x="180" y="30" as="sourcePoint"/>
            <mxPoint x="300" y="80" as="targetPoint"/>
          </mxGeometry>
        </mxCell>
        <mxCell id="ZH39JfTqmYpF4iKeCnlZ-35" value="" style="endArrow=none;html=1;entryX=0.413;entryY=1.011;entryDx=0;entryDy=0;entryPerimeter=0;exitX=0.625;exitY=1.011;exitDx=0;exitDy=0;exitPerimeter=0;" parent="1" source="vV2OZhfB6OUsBRNj7-WW-89" target="vV2OZhfB6OUsBRNj7-WW-92" edge="1">
          <mxGeometry width="50" height="50" relative="1" as="geometry">
            <mxPoint x="410" y="1240" as="sourcePoint"/>
            <mxPoint x="460" y="1190" as="targetPoint"/>
            <Array as="points">
              <mxPoint x="350" y="1240"/>
              <mxPoint x="520" y="1240"/>
            </Array>
          </mxGeometry>
        </mxCell>
        <mxCell id="ZH39JfTqmYpF4iKeCnlZ-38" value="" style="endArrow=none;html=1;exitX=0.25;exitY=1;exitDx=0;exitDy=0;entryX=0;entryY=0.5;entryDx=0;entryDy=0;" parent="1" source="ZH39JfTqmYpF4iKeCnlZ-12" target="vV2OZhfB6OUsBRNj7-WW-97" edge="1">
          <mxGeometry width="50" height="50" relative="1" as="geometry">
            <mxPoint x="530" y="140" as="sourcePoint"/>
            <mxPoint x="580" y="90" as="targetPoint"/>
          </mxGeometry>
        </mxCell>
        <mxCell id="ZH39JfTqmYpF4iKeCnlZ-39" value="" style="endArrow=none;html=1;" parent="1" edge="1">
          <mxGeometry width="50" height="50" relative="1" as="geometry">
            <mxPoint x="580" y="160" as="sourcePoint"/>
            <mxPoint x="580" y="100" as="targetPoint"/>
          </mxGeometry>
        </mxCell>
        <mxCell id="ZH39JfTqmYpF4iKeCnlZ-40" value="(1/n)" style="text;html=1;strokeColor=none;fillColor=none;align=center;verticalAlign=middle;whiteSpace=wrap;rounded=0;" parent="1" vertex="1">
          <mxGeometry x="130" y="420" width="40" height="20" as="geometry"/>
        </mxCell>
        <mxCell id="ZH39JfTqmYpF4iKeCnlZ-41" value="(Avoir)" style="text;html=1;" parent="1" vertex="1">
          <mxGeometry x="190" y="415" width="60" height="30" as="geometry"/>
        </mxCell>
        <mxCell id="ZH39JfTqmYpF4iKeCnlZ-42" value="(n/m)" style="text;html=1;strokeColor=none;fillColor=none;align=center;verticalAlign=middle;whiteSpace=wrap;rounded=0;" parent="1" vertex="1">
          <mxGeometry x="260" y="410" width="40" height="20" as="geometry"/>
        </mxCell>
        <mxCell id="ZH39JfTqmYpF4iKeCnlZ-44" value="IdTraineurs/Speciality" style="swimlane;fontStyle=0;childLayout=stackLayout;horizontal=1;startSize=26;fillColor=#9C9C9C;horizontalStack=0;resizeParent=1;resizeParentMax=0;resizeLast=0;collapsible=1;marginBottom=0;swimlaneFillColor=#ffffff;align=center;fontSize=14;strokeColor=#666666;fontColor=#333333;" parent="1" vertex="1">
          <mxGeometry x="50" y="290" width="160" height="104" as="geometry"/>
        </mxCell>
        <mxCell id="ZH39JfTqmYpF4iKeCnlZ-45" value="." style="text;strokeColor=none;fillColor=none;spacingLeft=4;spacingRight=4;overflow=hidden;rotatable=0;points=[[0,0.5],[1,0.5]];portConstraint=eastwest;fontSize=12;" parent="ZH39JfTqmYpF4iKeCnlZ-44" vertex="1">
          <mxGeometry y="26" width="160" height="26" as="geometry"/>
        </mxCell>
        <mxCell id="ZH39JfTqmYpF4iKeCnlZ-46" value="." style="text;strokeColor=none;fillColor=none;spacingLeft=4;spacingRight=4;overflow=hidden;rotatable=0;points=[[0,0.5],[1,0.5]];portConstraint=eastwest;fontSize=12;" parent="ZH39JfTqmYpF4iKeCnlZ-44" vertex="1">
          <mxGeometry y="52" width="160" height="26" as="geometry"/>
        </mxCell>
        <mxCell id="ZH39JfTqmYpF4iKeCnlZ-47" value="+IdTraineursIdSpeciality" style="text;strokeColor=none;fillColor=none;spacingLeft=4;spacingRight=4;overflow=hidden;rotatable=0;points=[[0,0.5],[1,0.5]];portConstraint=eastwest;fontSize=12;" parent="ZH39JfTqmYpF4iKeCnlZ-44" vertex="1">
          <mxGeometry y="78" width="160" height="26" as="geometry"/>
        </mxCell>
        <mxCell id="ZH39JfTqmYpF4iKeCnlZ-49" value="" style="endArrow=none;html=1;edgeStyle=orthogonalEdgeStyle;exitX=1.031;exitY=0.808;exitDx=0;exitDy=0;exitPerimeter=0;" parent="1" source="ZH39JfTqmYpF4iKeCnlZ-46" edge="1">
          <mxGeometry width="50" height="50" relative="1" as="geometry">
            <mxPoint x="200" y="380" as="sourcePoint"/>
            <mxPoint x="260" y="440" as="targetPoint"/>
          </mxGeometry>
        </mxCell>
        <mxCell id="ZH39JfTqmYpF4iKeCnlZ-50" value="" style="endArrow=none;html=1;entryX=0.306;entryY=1.016;entryDx=0;entryDy=0;entryPerimeter=0;" parent="1" target="vV2OZhfB6OUsBRNj7-WW-7" edge="1">
          <mxGeometry width="50" height="50" relative="1" as="geometry">
            <mxPoint x="29" y="430" as="sourcePoint"/>
            <mxPoint x="50" y="330" as="targetPoint"/>
          </mxGeometry>
        </mxCell>
        <mxCell id="ZH39JfTqmYpF4iKeCnlZ-51" value="Occuper" style="text;html=1;strokeColor=none;fillColor=none;align=center;verticalAlign=middle;whiteSpace=wrap;rounded=0;" parent="1" vertex="1">
          <mxGeometry x="-20" y="332" width="40" height="20" as="geometry"/>
        </mxCell>
        <mxCell id="ZH39JfTqmYpF4iKeCnlZ-53" value="(0/1)" style="text;html=1;strokeColor=none;fillColor=none;align=center;verticalAlign=middle;whiteSpace=wrap;rounded=0;" parent="1" vertex="1">
          <mxGeometry x="-20" y="248" width="40" height="20" as="geometry"/>
        </mxCell>
        <mxCell id="ZH39JfTqmYpF4iKeCnlZ-54" value="(0/1)" style="text;html=1;strokeColor=none;fillColor=none;align=center;verticalAlign=middle;whiteSpace=wrap;rounded=0;" parent="1" vertex="1">
          <mxGeometry x="-20" y="410" width="40" height="20" as="geometry"/>
        </mxCell>
        <mxCell id="ZH39JfTqmYpF4iKeCnlZ-65" value="" style="endArrow=none;html=1;exitX=1;exitY=0.5;exitDx=0;exitDy=0;entryX=0;entryY=0;entryDx=0;entryDy=0;" parent="1" source="vV2OZhfB6OUsBRNj7-WW-70" target="vV2OZhfB6OUsBRNj7-WW-75" edge="1">
          <mxGeometry width="50" height="50" relative="1" as="geometry">
            <mxPoint x="170" y="630" as="sourcePoint"/>
            <mxPoint x="230" y="580" as="targetPoint"/>
            <Array as="points">
              <mxPoint x="200" y="590"/>
            </Array>
          </mxGeometry>
        </mxCell>
        <mxCell id="ZH39JfTqmYpF4iKeCnlZ-66" value="(1/n)" style="text;html=1;strokeColor=none;fillColor=none;align=center;verticalAlign=middle;whiteSpace=wrap;rounded=0;" parent="1" vertex="1">
          <mxGeometry x="140" y="560" width="40" height="20" as="geometry"/>
        </mxCell>
        <mxCell id="ZH39JfTqmYpF4iKeCnlZ-67" value="(1/n)" style="text;html=1;strokeColor=none;fillColor=none;align=center;verticalAlign=middle;whiteSpace=wrap;rounded=0;" parent="1" vertex="1">
          <mxGeometry x="200" y="560" width="40" height="20" as="geometry"/>
        </mxCell>
        <mxCell id="ZH39JfTqmYpF4iKeCnlZ-68" value="&lt;div&gt;(Appartenir)&lt;/div&gt;" style="text;html=1;strokeColor=none;fillColor=none;align=center;verticalAlign=middle;whiteSpace=wrap;rounded=0;" parent="1" vertex="1">
          <mxGeometry x="180" y="590" width="40" height="20" as="geometry"/>
        </mxCell>
        <mxCell id="ZH39JfTqmYpF4iKeCnlZ-69" value="" style="endArrow=none;html=1;entryX=0.013;entryY=0.2;entryDx=0;entryDy=0;entryPerimeter=0;" parent="1" target="vV2OZhfB6OUsBRNj7-WW-76" edge="1">
          <mxGeometry width="50" height="50" relative="1" as="geometry">
            <mxPoint x="140" y="647" as="sourcePoint"/>
            <mxPoint x="230" y="720" as="targetPoint"/>
            <Array as="points">
              <mxPoint x="190" y="734"/>
            </Array>
          </mxGeometry>
        </mxCell>
        <mxCell id="ZH39JfTqmYpF4iKeCnlZ-70" value="(1/1)" style="text;html=1;strokeColor=none;fillColor=none;align=center;verticalAlign=middle;whiteSpace=wrap;rounded=0;" parent="1" vertex="1">
          <mxGeometry x="140" y="640" width="40" height="20" as="geometry"/>
        </mxCell>
        <mxCell id="ZH39JfTqmYpF4iKeCnlZ-71" value="(1/n)" style="text;html=1;strokeColor=none;fillColor=none;align=center;verticalAlign=middle;whiteSpace=wrap;rounded=0;" parent="1" vertex="1">
          <mxGeometry x="210" y="710" width="40" height="20" as="geometry"/>
        </mxCell>
        <mxCell id="ZH39JfTqmYpF4iKeCnlZ-73" value="(Posseder)" style="text;html=1;strokeColor=none;fillColor=none;align=center;verticalAlign=middle;whiteSpace=wrap;rounded=0;" parent="1" vertex="1">
          <mxGeometry x="150" y="690" width="70" height="20" as="geometry"/>
        </mxCell>
        <mxCell id="vV2OZhfB6OUsBRNj7-WW-88" value="Mobility" style="swimlane;childLayout=stackLayout;horizontal=1;startSize=30;horizontalStack=0;fillColor=#f5f5f5;rounded=0;fontSize=14;fontStyle=0;strokeWidth=2;resizeParent=0;resizeLast=1;shadow=0;dashed=0;align=center;labelBackgroundColor=none;strokeColor=#666666;fontColor=#333333;" parent="1" vertex="1">
          <mxGeometry x="240" y="1049" width="160" height="120" as="geometry"/>
        </mxCell>
        <mxCell id="vV2OZhfB6OUsBRNj7-WW-89" value="+IdMobility&#xa;+TypeOfUsedVehicule&#xa;&#xa;&#xa;+IdTraineurs&#xa;+idEnergy&#xa;" style="align=left;strokeColor=none;fillColor=none;spacingLeft=4;fontSize=12;verticalAlign=top;resizable=0;rotatable=0;part=1;" parent="vV2OZhfB6OUsBRNj7-WW-88" vertex="1">
          <mxGeometry y="30" width="160" height="90" as="geometry"/>
        </mxCell>
        <mxCell id="vV2OZhfB6OUsBRNj7-WW-91" value="VehiculesEnergy" style="swimlane;childLayout=stackLayout;horizontal=1;startSize=30;horizontalStack=0;fillColor=#f5f5f5;rounded=0;fontSize=14;fontStyle=0;strokeWidth=2;resizeParent=0;resizeLast=1;shadow=0;dashed=0;align=center;labelBackgroundColor=none;strokeColor=#666666;fontColor=#333333;" parent="1" vertex="1">
          <mxGeometry x="450" y="1049" width="160" height="120" as="geometry"/>
        </mxCell>
        <mxCell id="vV2OZhfB6OUsBRNj7-WW-92" value="+idEnergy&#xa;+TypeOfEnergy&#xa;&#xa;&#xa;++IdMobility&#xa;" style="align=left;strokeColor=none;fillColor=none;spacingLeft=4;fontSize=12;verticalAlign=top;resizable=0;rotatable=0;part=1;" parent="vV2OZhfB6OUsBRNj7-WW-91" vertex="1">
          <mxGeometry y="30" width="160" height="90" as="geometry"/>
        </mxCell>
        <mxCell id="ZH39JfTqmYpF4iKeCnlZ-82" value="(1/1)" style="text;html=1;strokeColor=none;fillColor=none;align=center;verticalAlign=middle;whiteSpace=wrap;rounded=0;" parent="1" vertex="1">
          <mxGeometry x="460" y="1000" width="40" height="20" as="geometry"/>
        </mxCell>
        <mxCell id="ZH39JfTqmYpF4iKeCnlZ-83" value="(Posseder)" style="text;html=1;strokeColor=none;fillColor=none;align=center;verticalAlign=middle;whiteSpace=wrap;rounded=0;" parent="1" vertex="1">
          <mxGeometry x="260" y="990" width="70" height="20" as="geometry"/>
        </mxCell>
        <mxCell id="ZH39JfTqmYpF4iKeCnlZ-85" value="" style="endArrow=none;html=1;entryX=0;entryY=0.25;entryDx=0;entryDy=0;" parent="1" target="vV2OZhfB6OUsBRNj7-WW-102" edge="1">
          <mxGeometry width="50" height="50" relative="1" as="geometry">
            <mxPoint x="520" y="840" as="sourcePoint"/>
            <mxPoint x="640" y="780" as="targetPoint"/>
            <Array as="points">
              <mxPoint x="520" y="780"/>
            </Array>
          </mxGeometry>
        </mxCell>
        <mxCell id="ZH39JfTqmYpF4iKeCnlZ-87" value="(1/1)" style="text;html=1;strokeColor=none;fillColor=none;align=center;verticalAlign=middle;whiteSpace=wrap;rounded=0;" parent="1" vertex="1">
          <mxGeometry x="480" y="820" width="40" height="20" as="geometry"/>
        </mxCell>
        <mxCell id="ZH39JfTqmYpF4iKeCnlZ-88" value="(1/n)" style="text;html=1;strokeColor=none;fillColor=none;align=center;verticalAlign=middle;whiteSpace=wrap;rounded=0;" parent="1" vertex="1">
          <mxGeometry x="610" y="760" width="40" height="20" as="geometry"/>
        </mxCell>
        <mxCell id="ZH39JfTqmYpF4iKeCnlZ-90" value="(Posseder)" style="text;html=1;strokeColor=none;fillColor=none;align=center;verticalAlign=middle;whiteSpace=wrap;rounded=0;" parent="1" vertex="1">
          <mxGeometry x="515" y="760" width="70" height="20" as="geometry"/>
        </mxCell>
        <mxCell id="ZH39JfTqmYpF4iKeCnlZ-91" value="" style="endArrow=none;html=1;exitX=0.75;exitY=1;exitDx=0;exitDy=0;" parent="1" source="vV2OZhfB6OUsBRNj7-WW-100" edge="1">
          <mxGeometry width="50" height="50" relative="1" as="geometry">
            <mxPoint x="570" y="980" as="sourcePoint"/>
            <mxPoint x="660" y="970" as="targetPoint"/>
            <Array as="points">
              <mxPoint x="640" y="1040"/>
            </Array>
          </mxGeometry>
        </mxCell>
        <mxCell id="ZH39JfTqmYpF4iKeCnlZ-92" value="(1/1)" style="text;html=1;strokeColor=none;fillColor=none;align=center;verticalAlign=middle;whiteSpace=wrap;rounded=0;" parent="1" vertex="1">
          <mxGeometry x="540" y="1000" width="40" height="20" as="geometry"/>
        </mxCell>
        <mxCell id="ZH39JfTqmYpF4iKeCnlZ-93" value="(1/n)" style="text;html=1;strokeColor=none;fillColor=none;align=center;verticalAlign=middle;whiteSpace=wrap;rounded=0;" parent="1" vertex="1">
          <mxGeometry x="660" y="970" width="40" height="20" as="geometry"/>
        </mxCell>
        <mxCell id="ZH39JfTqmYpF4iKeCnlZ-95" value="(Posseder)" style="text;html=1;strokeColor=none;fillColor=none;align=center;verticalAlign=middle;whiteSpace=wrap;rounded=0;" parent="1" vertex="1">
          <mxGeometry x="640" y="1020" width="70" height="20" as="geometry"/>
        </mxCell>
        <mxCell id="ZH39JfTqmYpF4iKeCnlZ-81" value="(1/n)" style="text;html=1;strokeColor=none;fillColor=none;align=center;verticalAlign=middle;whiteSpace=wrap;rounded=0;" parent="1" vertex="1">
          <mxGeometry x="40" y="790" width="40" height="20" as="geometry"/>
        </mxCell>
        <mxCell id="ZH39JfTqmYpF4iKeCnlZ-96" value="" style="endArrow=none;html=1;entryX=0.5;entryY=1;entryDx=0;entryDy=0;exitX=0.563;exitY=1;exitDx=0;exitDy=0;exitPerimeter=0;" parent="1" source="vV2OZhfB6OUsBRNj7-WW-100" target="ZH39JfTqmYpF4iKeCnlZ-81" edge="1">
          <mxGeometry width="50" height="50" relative="1" as="geometry">
            <mxPoint x="530.0799999999999" y="970" as="sourcePoint"/>
            <mxPoint x="60" y="790" as="targetPoint"/>
            <Array as="points">
              <mxPoint x="300" y="1020"/>
              <mxPoint x="60" y="990"/>
            </Array>
          </mxGeometry>
        </mxCell>
        <mxCell id="ZH39JfTqmYpF4iKeCnlZ-97" value="(1/n)" style="text;html=1;strokeColor=none;fillColor=none;align=center;verticalAlign=middle;whiteSpace=wrap;rounded=0;" parent="1" vertex="1">
          <mxGeometry x="-20" y="800" width="40" height="20" as="geometry"/>
        </mxCell>
        <mxCell id="ZH39JfTqmYpF4iKeCnlZ-99" value="(1/n)" style="text;html=1;strokeColor=none;fillColor=none;align=center;verticalAlign=middle;whiteSpace=wrap;rounded=0;" parent="1" vertex="1">
          <mxGeometry x="200" y="1130" width="40" height="20" as="geometry"/>
        </mxCell>
        <mxCell id="ZH39JfTqmYpF4iKeCnlZ-101" value="Utiliser" style="text;html=1;strokeColor=none;fillColor=none;align=center;verticalAlign=middle;whiteSpace=wrap;rounded=0;" parent="1" vertex="1">
          <mxGeometry x="60" y="1099" width="120" height="20" as="geometry"/>
        </mxCell>
        <mxCell id="ZH39JfTqmYpF4iKeCnlZ-102" value="(1/1)" style="text;html=1;strokeColor=none;fillColor=none;align=center;verticalAlign=middle;whiteSpace=wrap;rounded=0;" parent="1" vertex="1">
          <mxGeometry x="290" y="1169" width="40" height="20" as="geometry"/>
        </mxCell>
        <mxCell id="ZH39JfTqmYpF4iKeCnlZ-103" value="(1/n)" style="text;html=1;strokeColor=none;fillColor=none;align=center;verticalAlign=middle;whiteSpace=wrap;rounded=0;" parent="1" vertex="1">
          <mxGeometry x="515" y="1169" width="40" height="20" as="geometry"/>
        </mxCell>
        <mxCell id="ZH39JfTqmYpF4iKeCnlZ-105" value="Utiliser" style="text;html=1;strokeColor=none;fillColor=none;align=center;verticalAlign=middle;whiteSpace=wrap;rounded=0;" parent="1" vertex="1">
          <mxGeometry x="370" y="1220" width="120" height="20" as="geometry"/>
        </mxCell>
      </root>
    </mxGraphModel>
  </diagram>
</mxfile>
